# xmcd
#
# Track frame offsets:
# 151
# 17365
# 39598
# 54459
# 68866
# 82100
# 96112
# 110365
# 136768
# 151374
# 166377
# 183825
# 194861
# 208236
# 227196
# 246317
# 260629
# 277324
# 294799
# 308216
#
# Disc length: 4387 seconds
#
#
# Revision: 0
# Processed by: cddbd v1.5.2PL0 Copyright (c) Steve Scherf et al.
# Submitted via: FreeRIP 2.945 
#
DISCID=27112114
DTITLE=Julio Iglesias - Platinium Collection vol 1
DYEAR=1900
DGENRE=Blues
TTITLE0=ne me parle plus d'amour ii
TTITLE1=il faut toujours un perdant
TTITLE2=crazy
TTITLE3=cest toi ma chanson
TTITLE4=pauvre saible
TTITLE5=let it be me
TTITLE6=une nuit de carnaval
TTITLE7=caruso
TTITLE8=jai benson do toi
TTITLE9=cest ma vie
TTITLE10=Pelo amore de une mulher
TTITLE11=quand te nes olus la
TTITLE12=mmmy blue
TTITLE13=les sourires
TTITLE14=aflor depie
TTITLE15=nostalgia
TTITLE16=le mode est fou
TTITLE17=song of joy
TTITLE18=inconnu
TTITLE19=inconnu
EXTD=The Lost Music World
EXTT0=
EXTT1=
EXTT2=
EXTT3=
EXTT4=
EXTT5=
EXTT6=
EXTT7=
EXTT8=
EXTT9=
EXTT10=
EXTT11=
EXTT12=
EXTT13=
EXTT14=
EXTT15=
EXTT16=
EXTT17=
EXTT18=
EXTT19=
PLAYORDER=
